solid OpenSCAD_Model
  facet normal 0 1 -0
    outer loop
      vertex 181 70 0
      vertex 9 70 4
      vertex 181 70 4
    endloop
  endfacet
  facet normal 0 1 0
    outer loop
      vertex 9 70 4
      vertex 181 70 0
      vertex 9 70 0
    endloop
  endfacet
  facet normal -0.659346 -0.75184 0
    outer loop
      vertex 2.63604 2.63604 0
      vertex 3.52115 1.85982 4
      vertex 2.63604 2.63604 4
    endloop
  endfacet
  facet normal -0.659346 -0.75184 -0
    outer loop
      vertex 3.52115 1.85982 4
      vertex 2.63604 2.63604 0
      vertex 3.52115 1.85982 0
    endloop
  endfacet
  facet normal 0.442238 -0.896898 0
    outer loop
      vertex 184.444 0.685083 0
      vertex 185.5 1.20577 4
      vertex 184.444 0.685083 4
    endloop
  endfacet
  facet normal 0.442238 -0.896898 0
    outer loop
      vertex 185.5 1.20577 4
      vertex 184.444 0.685083 0
      vertex 185.5 1.20577 0
    endloop
  endfacet
  facet normal 0.195194 -0.980765 0
    outer loop
      vertex 182.175 0.0769958 0
      vertex 183.329 0.306667 4
      vertex 182.175 0.0769958 4
    endloop
  endfacet
  facet normal 0.195194 -0.980765 0
    outer loop
      vertex 183.329 0.306667 4
      vertex 182.175 0.0769958 0
      vertex 183.329 0.306667 0
    endloop
  endfacet
  facet normal 0.195217 0.98076 -0
    outer loop
      vertex 183.329 69.6933 0
      vertex 182.175 69.923 4
      vertex 183.329 69.6933 4
    endloop
  endfacet
  facet normal 0.195217 0.98076 0
    outer loop
      vertex 182.175 69.923 4
      vertex 183.329 69.6933 0
      vertex 182.175 69.923 0
    endloop
  endfacet
  facet normal 1 -0 0
    outer loop
      vertex 190 9 4
      vertex 190 61 0
      vertex 190 61 4
    endloop
  endfacet
  facet normal 1 0 0
    outer loop
      vertex 190 61 0
      vertex 190 9 4
      vertex 190 9 0
    endloop
  endfacet
  facet normal -0.75184 -0.659346 0
    outer loop
      vertex 2.63604 2.63604 0
      vertex 1.85982 3.52115 4
      vertex 1.85982 3.52115 0
    endloop
  endfacet
  facet normal -0.75184 -0.659346 0
    outer loop
      vertex 1.85982 3.52115 4
      vertex 2.63604 2.63604 0
      vertex 2.63604 2.63604 4
    endloop
  endfacet
  facet normal 0.751933 -0.65924 0
    outer loop
      vertex 187.364 2.63604 4
      vertex 188.14 3.52115 0
      vertex 188.14 3.52115 4
    endloop
  endfacet
  facet normal 0.751933 -0.65924 0
    outer loop
      vertex 188.14 3.52115 0
      vertex 187.364 2.63604 4
      vertex 187.364 2.63604 0
    endloop
  endfacet
  facet normal 0.555513 -0.831508 0
    outer loop
      vertex 185.5 1.20577 0
      vertex 186.479 1.85982 4
      vertex 185.5 1.20577 4
    endloop
  endfacet
  facet normal 0.555513 -0.831508 0
    outer loop
      vertex 186.479 1.85982 4
      vertex 185.5 1.20577 0
      vertex 186.479 1.85982 0
    endloop
  endfacet
  facet normal 0.94704 0.321117 0
    outer loop
      vertex 189.693 63.3294 4
      vertex 189.315 64.4442 0
      vertex 189.315 64.4442 4
    endloop
  endfacet
  facet normal 0.94704 0.321117 0
    outer loop
      vertex 189.315 64.4442 0
      vertex 189.693 63.3294 4
      vertex 189.693 63.3294 0
    endloop
  endfacet
  facet normal -0.896865 0.442305 0
    outer loop
      vertex 0.685083 64.4442 0
      vertex 1.20577 65.5 4
      vertex 1.20577 65.5 0
    endloop
  endfacet
  facet normal -0.896865 0.442305 0
    outer loop
      vertex 1.20577 65.5 4
      vertex 0.685083 64.4442 0
      vertex 0.685083 64.4442 4
    endloop
  endfacet
  facet normal 0.997859 -0.0654061 0
    outer loop
      vertex 189.923 7.82526 4
      vertex 190 9 0
      vertex 190 9 4
    endloop
  endfacet
  facet normal 0.997859 -0.0654061 0
    outer loop
      vertex 190 9 0
      vertex 189.923 7.82526 4
      vertex 189.923 7.82526 0
    endloop
  endfacet
  facet normal -0.555572 -0.831468 0
    outer loop
      vertex 3.52115 1.85982 0
      vertex 4.5 1.20577 4
      vertex 3.52115 1.85982 4
    endloop
  endfacet
  facet normal -0.555572 -0.831468 -0
    outer loop
      vertex 4.5 1.20577 4
      vertex 3.52115 1.85982 0
      vertex 4.5 1.20577 0
    endloop
  endfacet
  facet normal 0.0653917 0.99786 -0
    outer loop
      vertex 182.175 69.923 0
      vertex 181 70 4
      vertex 182.175 69.923 4
    endloop
  endfacet
  facet normal 0.0653917 0.99786 0
    outer loop
      vertex 181 70 4
      vertex 182.175 69.923 0
      vertex 181 70 0
    endloop
  endfacet
  facet normal 0.0653881 -0.99786 0
    outer loop
      vertex 181 0 0
      vertex 182.175 0.0769958 4
      vertex 181 0 4
    endloop
  endfacet
  facet normal 0.0653881 -0.99786 0
    outer loop
      vertex 182.175 0.0769958 4
      vertex 181 0 0
      vertex 182.175 0.0769958 0
    endloop
  endfacet
  facet normal 0.831501 0.555523 0
    outer loop
      vertex 188.794 65.5 4
      vertex 188.14 66.4789 0
      vertex 188.14 66.4789 4
    endloop
  endfacet
  facet normal 0.831501 0.555523 0
    outer loop
      vertex 188.14 66.4789 0
      vertex 188.794 65.5 4
      vertex 188.794 65.5 0
    endloop
  endfacet
  facet normal -0.659336 0.751848 0
    outer loop
      vertex 3.52115 68.1402 0
      vertex 2.63604 67.364 4
      vertex 3.52115 68.1402 4
    endloop
  endfacet
  facet normal -0.659336 0.751848 0
    outer loop
      vertex 2.63604 67.364 4
      vertex 3.52115 68.1402 0
      vertex 2.63604 67.364 0
    endloop
  endfacet
  facet normal 0 0 1
    outer loop
      vertex 181 70 4
      vertex 190 61 4
      vertex 189.923 62.1747 4
    endloop
  endfacet
  facet normal 0 0 1
    outer loop
      vertex 190 61 4
      vertex 167.5 35 4
      vertex 190 9 4
    endloop
  endfacet
  facet normal 0 0 1
    outer loop
      vertex 181 70 4
      vertex 189.923 62.1747 4
      vertex 189.693 63.3294 4
    endloop
  endfacet
  facet normal -0 0 1
    outer loop
      vertex 167.457 34.3474 4
      vertex 190 9 4
      vertex 167.5 35 4
    endloop
  endfacet
  facet normal 0 0 1
    outer loop
      vertex 181 70 4
      vertex 189.693 63.3294 4
      vertex 189.315 64.4442 4
    endloop
  endfacet
  facet normal -0 0 1
    outer loop
      vertex 167.33 33.7059 4
      vertex 190 9 4
      vertex 167.457 34.3474 4
    endloop
  endfacet
  facet normal 0 0 1
    outer loop
      vertex 181 70 4
      vertex 189.315 64.4442 4
      vertex 188.794 65.5 4
    endloop
  endfacet
  facet normal -0 0 1
    outer loop
      vertex 167.119 33.0866 4
      vertex 190 9 4
      vertex 167.33 33.7059 4
    endloop
  endfacet
  facet normal 0 0 1
    outer loop
      vertex 181 70 4
      vertex 188.794 65.5 4
      vertex 188.14 66.4789 4
    endloop
  endfacet
  facet normal -0 0 1
    outer loop
      vertex 166.83 32.5 4
      vertex 190 9 4
      vertex 167.119 33.0866 4
    endloop
  endfacet
  facet normal 0 0 1
    outer loop
      vertex 181 70 4
      vertex 188.14 66.4789 4
      vertex 187.364 67.364 4
    endloop
  endfacet
  facet normal -0 0 1
    outer loop
      vertex 166.467 31.9562 4
      vertex 190 9 4
      vertex 166.83 32.5 4
    endloop
  endfacet
  facet normal 0 0 1
    outer loop
      vertex 181 70 4
      vertex 187.364 67.364 4
      vertex 186.479 68.1402 4
    endloop
  endfacet
  facet normal -0 0 1
    outer loop
      vertex 166.036 31.4645 4
      vertex 190 9 4
      vertex 166.467 31.9562 4
    endloop
  endfacet
  facet normal 0 0 1
    outer loop
      vertex 181 70 4
      vertex 186.479 68.1402 4
      vertex 185.5 68.7942 4
    endloop
  endfacet
  facet normal -0 0 1
    outer loop
      vertex 165.544 31.0332 4
      vertex 190 9 4
      vertex 166.036 31.4645 4
    endloop
  endfacet
  facet normal 0 0 1
    outer loop
      vertex 181 70 4
      vertex 185.5 68.7942 4
      vertex 184.444 69.3149 4
    endloop
  endfacet
  facet normal -0 0 1
    outer loop
      vertex 165 30.6699 4
      vertex 190 9 4
      vertex 165.544 31.0332 4
    endloop
  endfacet
  facet normal 0 0 1
    outer loop
      vertex 181 70 4
      vertex 184.444 69.3149 4
      vertex 183.329 69.6933 4
    endloop
  endfacet
  facet normal 0 -0 1
    outer loop
      vertex 181 0 4
      vertex 190 9 4
      vertex 165 30.6699 4
    endloop
  endfacet
  facet normal 0 0 1
    outer loop
      vertex 181 70 4
      vertex 183.329 69.6933 4
      vertex 182.175 69.923 4
    endloop
  endfacet
  facet normal 0 0 1
    outer loop
      vertex 189.923 7.82526 4
      vertex 181 0 4
      vertex 189.693 6.67063 4
    endloop
  endfacet
  facet normal 0 0 1
    outer loop
      vertex 190 61 4
      vertex 181 70 4
      vertex 165 39.3301 4
    endloop
  endfacet
  facet normal 0 0 1
    outer loop
      vertex 189.693 6.67063 4
      vertex 181 0 4
      vertex 189.315 5.55585 4
    endloop
  endfacet
  facet normal 0 0 1
    outer loop
      vertex 189.315 5.55585 4
      vertex 181 0 4
      vertex 188.794 4.5 4
    endloop
  endfacet
  facet normal 0 0 1
    outer loop
      vertex 190 61 4
      vertex 167.457 35.6526 4
      vertex 167.5 35 4
    endloop
  endfacet
  facet normal 0 0 1
    outer loop
      vertex 190 61 4
      vertex 167.33 36.2941 4
      vertex 167.457 35.6526 4
    endloop
  endfacet
  facet normal 0 0 1
    outer loop
      vertex 190 61 4
      vertex 167.119 36.9134 4
      vertex 167.33 36.2941 4
    endloop
  endfacet
  facet normal 0 0 1
    outer loop
      vertex 190 61 4
      vertex 166.83 37.5 4
      vertex 167.119 36.9134 4
    endloop
  endfacet
  facet normal 0 0 1
    outer loop
      vertex 190 61 4
      vertex 166.467 38.0438 4
      vertex 166.83 37.5 4
    endloop
  endfacet
  facet normal 0 0 1
    outer loop
      vertex 190 61 4
      vertex 166.036 38.5355 4
      vertex 166.467 38.0438 4
    endloop
  endfacet
  facet normal 0 0 1
    outer loop
      vertex 190 61 4
      vertex 165.544 38.9668 4
      vertex 166.036 38.5355 4
    endloop
  endfacet
  facet normal 0 0 1
    outer loop
      vertex 190 61 4
      vertex 165 39.3301 4
      vertex 165.544 38.9668 4
    endloop
  endfacet
  facet normal 0 0 1
    outer loop
      vertex 181 70 4
      vertex 164.413 39.6194 4
      vertex 165 39.3301 4
    endloop
  endfacet
  facet normal 0 0 1
    outer loop
      vertex 181 70 4
      vertex 163.794 39.8296 4
      vertex 164.413 39.6194 4
    endloop
  endfacet
  facet normal 0 0 1
    outer loop
      vertex 181 70 4
      vertex 163.153 39.9572 4
      vertex 163.794 39.8296 4
    endloop
  endfacet
  facet normal 0 0 1
    outer loop
      vertex 181 70 4
      vertex 162.5 40 4
      vertex 163.153 39.9572 4
    endloop
  endfacet
  facet normal 0 0 1
    outer loop
      vertex 181 70 4
      vertex 27.5 40 4
      vertex 162.5 40 4
    endloop
  endfacet
  facet normal -0 0 1
    outer loop
      vertex 9 70 4
      vertex 27.5 40 4
      vertex 181 70 4
    endloop
  endfacet
  facet normal 0 0 1
    outer loop
      vertex 22.6704 36.2941 4
      vertex 0 61 4
      vertex 22.5428 35.6526 4
    endloop
  endfacet
  facet normal 0 0 1
    outer loop
      vertex 22.8806 36.9134 4
      vertex 0 61 4
      vertex 22.6704 36.2941 4
    endloop
  endfacet
  facet normal 0 0 1
    outer loop
      vertex 23.1699 37.5 4
      vertex 0 61 4
      vertex 22.8806 36.9134 4
    endloop
  endfacet
  facet normal 0 0 1
    outer loop
      vertex 23.5332 38.0438 4
      vertex 0 61 4
      vertex 23.1699 37.5 4
    endloop
  endfacet
  facet normal 0 0 1
    outer loop
      vertex 23.9645 38.5355 4
      vertex 0 61 4
      vertex 23.5332 38.0438 4
    endloop
  endfacet
  facet normal 0 0 1
    outer loop
      vertex 24.4562 38.9668 4
      vertex 0 61 4
      vertex 23.9645 38.5355 4
    endloop
  endfacet
  facet normal 0 0 1
    outer loop
      vertex 25 39.3301 4
      vertex 0 61 4
      vertex 24.4562 38.9668 4
    endloop
  endfacet
  facet normal -0 0 1
    outer loop
      vertex 0 61 4
      vertex 25 39.3301 4
      vertex 9 70 4
    endloop
  endfacet
  facet normal 0 0 1
    outer loop
      vertex 25.5866 39.6194 4
      vertex 9 70 4
      vertex 25 39.3301 4
    endloop
  endfacet
  facet normal 0 0 1
    outer loop
      vertex 26.2059 39.8296 4
      vertex 9 70 4
      vertex 25.5866 39.6194 4
    endloop
  endfacet
  facet normal 0 0 1
    outer loop
      vertex 26.8474 39.9572 4
      vertex 9 70 4
      vertex 26.2059 39.8296 4
    endloop
  endfacet
  facet normal 0 0 1
    outer loop
      vertex 27.5 40 4
      vertex 9 70 4
      vertex 26.8474 39.9572 4
    endloop
  endfacet
  facet normal 0 0 1
    outer loop
      vertex 188.794 4.5 4
      vertex 181 0 4
      vertex 188.14 3.52115 4
    endloop
  endfacet
  facet normal 0 0 1
    outer loop
      vertex 187.364 2.63604 4
      vertex 181 0 4
      vertex 186.479 1.85982 4
    endloop
  endfacet
  facet normal 0 0 1
    outer loop
      vertex 186.479 1.85982 4
      vertex 181 0 4
      vertex 185.5 1.20577 4
    endloop
  endfacet
  facet normal 0 0 1
    outer loop
      vertex 185.5 1.20577 4
      vertex 181 0 4
      vertex 184.444 0.685083 4
    endloop
  endfacet
  facet normal 0 0 1
    outer loop
      vertex 184.444 0.685083 4
      vertex 181 0 4
      vertex 183.329 0.306667 4
    endloop
  endfacet
  facet normal 0 0 1
    outer loop
      vertex 183.329 0.306667 4
      vertex 181 0 4
      vertex 182.175 0.0769958 4
    endloop
  endfacet
  facet normal 0 0 1
    outer loop
      vertex 188.14 3.52115 4
      vertex 181 0 4
      vertex 187.364 2.63604 4
    endloop
  endfacet
  facet normal 0 0 1
    outer loop
      vertex 190 9 4
      vertex 181 0 4
      vertex 189.923 7.82526 4
    endloop
  endfacet
  facet normal -0 0 1
    outer loop
      vertex 164.413 30.3806 4
      vertex 181 0 4
      vertex 165 30.6699 4
    endloop
  endfacet
  facet normal -0 0 1
    outer loop
      vertex 163.794 30.1704 4
      vertex 181 0 4
      vertex 164.413 30.3806 4
    endloop
  endfacet
  facet normal -0 0 1
    outer loop
      vertex 163.153 30.0428 4
      vertex 181 0 4
      vertex 163.794 30.1704 4
    endloop
  endfacet
  facet normal -0 0 1
    outer loop
      vertex 162.5 30 4
      vertex 181 0 4
      vertex 163.153 30.0428 4
    endloop
  endfacet
  facet normal -0 0 1
    outer loop
      vertex 27.5 30 4
      vertex 181 0 4
      vertex 162.5 30 4
    endloop
  endfacet
  facet normal 0 0 1
    outer loop
      vertex 9 0 4
      vertex 27.5 30 4
      vertex 26.8474 30.0428 4
    endloop
  endfacet
  facet normal 0 0 1
    outer loop
      vertex 22.5428 35.6526 4
      vertex 0 61 4
      vertex 22.5 35 4
    endloop
  endfacet
  facet normal 0 0 1
    outer loop
      vertex 0 9 4
      vertex 22.5 35 4
      vertex 0 61 4
    endloop
  endfacet
  facet normal 0 0 1
    outer loop
      vertex 22.5 35 4
      vertex 0 9 4
      vertex 22.5428 34.3474 4
    endloop
  endfacet
  facet normal 0 0 1
    outer loop
      vertex 27.5 30 4
      vertex 9 0 4
      vertex 181 0 4
    endloop
  endfacet
  facet normal 0 0 1
    outer loop
      vertex 26.2059 30.1704 4
      vertex 9 0 4
      vertex 26.8474 30.0428 4
    endloop
  endfacet
  facet normal 0 0 1
    outer loop
      vertex 25.5866 30.3806 4
      vertex 9 0 4
      vertex 26.2059 30.1704 4
    endloop
  endfacet
  facet normal 0 0 1
    outer loop
      vertex 25 30.6699 4
      vertex 9 0 4
      vertex 25.5866 30.3806 4
    endloop
  endfacet
  facet normal 0 0 1
    outer loop
      vertex 0 9 4
      vertex 25 30.6699 4
      vertex 24.4562 31.0332 4
    endloop
  endfacet
  facet normal 0 0 1
    outer loop
      vertex 0 9 4
      vertex 24.4562 31.0332 4
      vertex 23.9645 31.4645 4
    endloop
  endfacet
  facet normal 0 0 1
    outer loop
      vertex 0 9 4
      vertex 23.9645 31.4645 4
      vertex 23.5332 31.9562 4
    endloop
  endfacet
  facet normal 0 0 1
    outer loop
      vertex 0 9 4
      vertex 23.5332 31.9562 4
      vertex 23.1699 32.5 4
    endloop
  endfacet
  facet normal 0 0 1
    outer loop
      vertex 0 9 4
      vertex 23.1699 32.5 4
      vertex 22.8806 33.0866 4
    endloop
  endfacet
  facet normal 0 0 1
    outer loop
      vertex 22.5428 34.3474 4
      vertex 0 9 4
      vertex 22.6704 33.7059 4
    endloop
  endfacet
  facet normal 0 0 1
    outer loop
      vertex 0 61 4
      vertex 9 70 4
      vertex 7.82526 69.923 4
    endloop
  endfacet
  facet normal 0 0 1
    outer loop
      vertex 22.6704 33.7059 4
      vertex 0 9 4
      vertex 22.8806 33.0866 4
    endloop
  endfacet
  facet normal 0 0 1
    outer loop
      vertex 0 61 4
      vertex 7.82526 69.923 4
      vertex 6.67063 69.6933 4
    endloop
  endfacet
  facet normal 0 0 1
    outer loop
      vertex 25 30.6699 4
      vertex 0 9 4
      vertex 9 0 4
    endloop
  endfacet
  facet normal 0 0 1
    outer loop
      vertex 0 61 4
      vertex 6.67063 69.6933 4
      vertex 5.55585 69.3149 4
    endloop
  endfacet
  facet normal 0 0 1
    outer loop
      vertex 9 0 4
      vertex 0 9 4
      vertex 7.82526 0.0769958 4
    endloop
  endfacet
  facet normal 0 0 1
    outer loop
      vertex 0 61 4
      vertex 5.55585 69.3149 4
      vertex 4.5 68.7942 4
    endloop
  endfacet
  facet normal 0 0 1
    outer loop
      vertex 7.82526 0.0769958 4
      vertex 0 9 4
      vertex 6.67063 0.306667 4
    endloop
  endfacet
  facet normal 0 0 1
    outer loop
      vertex 0 61 4
      vertex 4.5 68.7942 4
      vertex 3.52115 68.1402 4
    endloop
  endfacet
  facet normal 0 0 1
    outer loop
      vertex 6.67063 0.306667 4
      vertex 0 9 4
      vertex 5.55585 0.685083 4
    endloop
  endfacet
  facet normal 0 0 1
    outer loop
      vertex 0 61 4
      vertex 3.52115 68.1402 4
      vertex 2.63604 67.364 4
    endloop
  endfacet
  facet normal 0 0 1
    outer loop
      vertex 5.55585 0.685083 4
      vertex 0 9 4
      vertex 4.5 1.20577 4
    endloop
  endfacet
  facet normal 0 0 1
    outer loop
      vertex 0 61 4
      vertex 2.63604 67.364 4
      vertex 1.85982 66.4789 4
    endloop
  endfacet
  facet normal 0 0 1
    outer loop
      vertex 4.5 1.20577 4
      vertex 0 9 4
      vertex 3.52115 1.85982 4
    endloop
  endfacet
  facet normal 0 0 1
    outer loop
      vertex 0 61 4
      vertex 1.85982 66.4789 4
      vertex 1.20577 65.5 4
    endloop
  endfacet
  facet normal 0 0 1
    outer loop
      vertex 3.52115 1.85982 4
      vertex 0 9 4
      vertex 2.63604 2.63604 4
    endloop
  endfacet
  facet normal 0 0 1
    outer loop
      vertex 0 61 4
      vertex 1.20577 65.5 4
      vertex 0.685083 64.4442 4
    endloop
  endfacet
  facet normal 0 0 1
    outer loop
      vertex 2.63604 2.63604 4
      vertex 0 9 4
      vertex 1.85982 3.52115 4
    endloop
  endfacet
  facet normal 0 0 1
    outer loop
      vertex 0 61 4
      vertex 0.685083 64.4442 4
      vertex 0.306667 63.3294 4
    endloop
  endfacet
  facet normal 0 0 1
    outer loop
      vertex 1.85982 3.52115 4
      vertex 0 9 4
      vertex 1.20577 4.5 4
    endloop
  endfacet
  facet normal 0 0 1
    outer loop
      vertex 0 61 4
      vertex 0.306667 63.3294 4
      vertex 0.0769958 62.1747 4
    endloop
  endfacet
  facet normal 0 0 1
    outer loop
      vertex 1.20577 4.5 4
      vertex 0 9 4
      vertex 0.685083 5.55585 4
    endloop
  endfacet
  facet normal 0 0 1
    outer loop
      vertex 0.685083 5.55585 4
      vertex 0 9 4
      vertex 0.306667 6.67063 4
    endloop
  endfacet
  facet normal 0 0 1
    outer loop
      vertex 0.306667 6.67063 4
      vertex 0 9 4
      vertex 0.0769958 7.82526 4
    endloop
  endfacet
  facet normal -1 0 0
    outer loop
      vertex 0 9 0
      vertex 0 61 4
      vertex 0 61 0
    endloop
  endfacet
  facet normal -1 -0 0
    outer loop
      vertex 0 61 4
      vertex 0 9 0
      vertex 0 9 4
    endloop
  endfacet
  facet normal 0.32137 0.946954 -0
    outer loop
      vertex 184.444 69.3149 0
      vertex 183.329 69.6933 4
      vertex 184.444 69.3149 4
    endloop
  endfacet
  facet normal 0.32137 0.946954 0
    outer loop
      vertex 183.329 69.6933 4
      vertex 184.444 69.3149 0
      vertex 183.329 69.6933 0
    endloop
  endfacet
  facet normal 0.980734 0.195348 0
    outer loop
      vertex 189.923 62.1747 4
      vertex 189.693 63.3294 0
      vertex 189.693 63.3294 4
    endloop
  endfacet
  facet normal 0.980734 0.195348 0
    outer loop
      vertex 189.693 63.3294 0
      vertex 189.923 62.1747 4
      vertex 189.923 62.1747 0
    endloop
  endfacet
  facet normal -0.896873 -0.442288 0
    outer loop
      vertex 1.20577 4.5 0
      vertex 0.685083 5.55585 4
      vertex 0.685083 5.55585 0
    endloop
  endfacet
  facet normal -0.896873 -0.442288 0
    outer loop
      vertex 0.685083 5.55585 4
      vertex 1.20577 4.5 0
      vertex 1.20577 4.5 4
    endloop
  endfacet
  facet normal 0.997859 0.0654083 0
    outer loop
      vertex 190 61 4
      vertex 189.923 62.1747 0
      vertex 189.923 62.1747 4
    endloop
  endfacet
  facet normal 0.997859 0.0654083 0
    outer loop
      vertex 189.923 62.1747 0
      vertex 190 61 4
      vertex 190 61 0
    endloop
  endfacet
  facet normal -0.980785 -0.195091 0
    outer loop
      vertex 0.306667 6.67063 0
      vertex 0.0769958 7.82526 4
      vertex 0.0769958 7.82526 0
    endloop
  endfacet
  facet normal -0.980785 -0.195091 0
    outer loop
      vertex 0.0769958 7.82526 4
      vertex 0.306667 6.67063 0
      vertex 0.306667 6.67063 4
    endloop
  endfacet
  facet normal 0.896759 0.442519 0
    outer loop
      vertex 189.315 64.4442 4
      vertex 188.794 65.5 0
      vertex 188.794 65.5 4
    endloop
  endfacet
  facet normal 0.896759 0.442519 0
    outer loop
      vertex 188.794 65.5 0
      vertex 189.315 64.4442 4
      vertex 189.315 64.4442 0
    endloop
  endfacet
  facet normal 0.751929 0.659244 0
    outer loop
      vertex 188.14 66.4789 4
      vertex 187.364 67.364 0
      vertex 187.364 67.364 4
    endloop
  endfacet
  facet normal 0.751929 0.659244 0
    outer loop
      vertex 187.364 67.364 0
      vertex 188.14 66.4789 4
      vertex 188.14 66.4789 0
    endloop
  endfacet
  facet normal -0.997859 0.0654047 0
    outer loop
      vertex 0 61 0
      vertex 0.0769958 62.1747 4
      vertex 0.0769958 62.1747 0
    endloop
  endfacet
  facet normal -0.997859 0.0654047 0
    outer loop
      vertex 0.0769958 62.1747 4
      vertex 0 61 0
      vertex 0 61 4
    endloop
  endfacet
  facet normal 0 -1 0
    outer loop
      vertex 9 0 0
      vertex 181 0 4
      vertex 9 0 4
    endloop
  endfacet
  facet normal 0 -1 -0
    outer loop
      vertex 181 0 4
      vertex 9 0 0
      vertex 181 0 0
    endloop
  endfacet
  facet normal 0.947038 -0.321122 0
    outer loop
      vertex 189.315 5.55585 4
      vertex 189.693 6.67063 0
      vertex 189.693 6.67063 4
    endloop
  endfacet
  facet normal 0.947038 -0.321122 0
    outer loop
      vertex 189.693 6.67063 0
      vertex 189.315 5.55585 4
      vertex 189.315 5.55585 0
    endloop
  endfacet
  facet normal 0.321382 -0.94695 0
    outer loop
      vertex 183.329 0.306667 0
      vertex 184.444 0.685083 4
      vertex 183.329 0.306667 4
    endloop
  endfacet
  facet normal 0.321382 -0.94695 0
    outer loop
      vertex 184.444 0.685083 4
      vertex 183.329 0.306667 0
      vertex 184.444 0.685083 0
    endloop
  endfacet
  facet normal -0.321427 0.946934 0
    outer loop
      vertex 6.67063 69.6933 0
      vertex 5.55585 69.3149 4
      vertex 6.67063 69.6933 4
    endloop
  endfacet
  facet normal -0.321427 0.946934 0
    outer loop
      vertex 5.55585 69.3149 4
      vertex 6.67063 69.6933 0
      vertex 5.55585 69.3149 0
    endloop
  endfacet
  facet normal -0.831468 -0.555572 0
    outer loop
      vertex 1.85982 3.52115 0
      vertex 1.20577 4.5 4
      vertex 1.20577 4.5 0
    endloop
  endfacet
  facet normal -0.831468 -0.555572 0
    outer loop
      vertex 1.20577 4.5 4
      vertex 1.85982 3.52115 0
      vertex 1.85982 3.52115 4
    endloop
  endfacet
  facet normal -0.321439 -0.94693 0
    outer loop
      vertex 5.55585 0.685083 0
      vertex 6.67063 0.306667 4
      vertex 5.55585 0.685083 4
    endloop
  endfacet
  facet normal -0.321439 -0.94693 -0
    outer loop
      vertex 6.67063 0.306667 4
      vertex 5.55585 0.685083 0
      vertex 6.67063 0.306667 0
    endloop
  endfacet
  facet normal -0.195091 -0.980785 0
    outer loop
      vertex 6.67063 0.306667 0
      vertex 7.82526 0.0769958 4
      vertex 6.67063 0.306667 4
    endloop
  endfacet
  facet normal -0.195091 -0.980785 -0
    outer loop
      vertex 7.82526 0.0769958 4
      vertex 6.67063 0.306667 0
      vertex 7.82526 0.0769958 0
    endloop
  endfacet
  facet normal -0.0654025 -0.997859 0
    outer loop
      vertex 7.82526 0.0769958 0
      vertex 9 0 4
      vertex 7.82526 0.0769958 4
    endloop
  endfacet
  facet normal -0.0654025 -0.997859 -0
    outer loop
      vertex 9 0 4
      vertex 7.82526 0.0769958 0
      vertex 9 0 0
    endloop
  endfacet
  facet normal 0.659392 -0.751799 0
    outer loop
      vertex 186.479 1.85982 0
      vertex 187.364 2.63604 4
      vertex 186.479 1.85982 4
    endloop
  endfacet
  facet normal 0.659392 -0.751799 0
    outer loop
      vertex 187.364 2.63604 4
      vertex 186.479 1.85982 0
      vertex 187.364 2.63604 0
    endloop
  endfacet
  facet normal -0.555543 0.831488 0
    outer loop
      vertex 4.5 68.7942 0
      vertex 3.52115 68.1402 4
      vertex 4.5 68.7942 4
    endloop
  endfacet
  facet normal -0.555543 0.831488 0
    outer loop
      vertex 3.52115 68.1402 4
      vertex 4.5 68.7942 0
      vertex 3.52115 68.1402 0
    endloop
  endfacet
  facet normal -0.997859 -0.0654025 0
    outer loop
      vertex 0.0769958 7.82526 0
      vertex 0 9 4
      vertex 0 9 0
    endloop
  endfacet
  facet normal -0.997859 -0.0654025 0
    outer loop
      vertex 0 9 4
      vertex 0.0769958 7.82526 0
      vertex 0.0769958 7.82526 4
    endloop
  endfacet
  facet normal -0.442288 -0.896873 0
    outer loop
      vertex 4.5 1.20577 0
      vertex 5.55585 0.685083 4
      vertex 4.5 1.20577 4
    endloop
  endfacet
  facet normal -0.442288 -0.896873 -0
    outer loop
      vertex 5.55585 0.685083 4
      vertex 4.5 1.20577 0
      vertex 5.55585 0.685083 0
    endloop
  endfacet
  facet normal 0.980732 -0.19536 0
    outer loop
      vertex 189.693 6.67063 4
      vertex 189.923 7.82526 0
      vertex 189.923 7.82526 4
    endloop
  endfacet
  facet normal 0.980732 -0.19536 0
    outer loop
      vertex 189.923 7.82526 0
      vertex 189.693 6.67063 4
      vertex 189.693 6.67063 0
    endloop
  endfacet
  facet normal 0.442247 0.896893 -0
    outer loop
      vertex 185.5 68.7942 0
      vertex 184.444 69.3149 4
      vertex 185.5 68.7942 4
    endloop
  endfacet
  facet normal 0.442247 0.896893 0
    outer loop
      vertex 184.444 69.3149 4
      vertex 185.5 68.7942 0
      vertex 184.444 69.3149 0
    endloop
  endfacet
  facet normal -0.0654061 0.997859 0
    outer loop
      vertex 9 70 0
      vertex 7.82526 69.923 4
      vertex 9 70 4
    endloop
  endfacet
  facet normal -0.0654061 0.997859 0
    outer loop
      vertex 7.82526 69.923 4
      vertex 9 70 0
      vertex 7.82526 69.923 0
    endloop
  endfacet
  facet normal -0.195115 0.98078 0
    outer loop
      vertex 7.82526 69.923 0
      vertex 6.67063 69.6933 4
      vertex 7.82526 69.923 4
    endloop
  endfacet
  facet normal -0.195115 0.98078 0
    outer loop
      vertex 6.67063 69.6933 4
      vertex 7.82526 69.923 0
      vertex 6.67063 69.6933 0
    endloop
  endfacet
  facet normal -0.946932 0.321434 0
    outer loop
      vertex 0.306667 63.3294 0
      vertex 0.685083 64.4442 4
      vertex 0.685083 64.4442 0
    endloop
  endfacet
  facet normal -0.946932 0.321434 0
    outer loop
      vertex 0.685083 64.4442 4
      vertex 0.306667 63.3294 0
      vertex 0.306667 63.3294 4
    endloop
  endfacet
  facet normal 0.831488 -0.555543 0
    outer loop
      vertex 188.14 3.52115 4
      vertex 188.794 4.5 0
      vertex 188.794 4.5 4
    endloop
  endfacet
  facet normal 0.831488 -0.555543 0
    outer loop
      vertex 188.794 4.5 0
      vertex 188.14 3.52115 4
      vertex 188.14 3.52115 0
    endloop
  endfacet
  facet normal 0.896767 -0.442502 0
    outer loop
      vertex 188.794 4.5 4
      vertex 189.315 5.55585 0
      vertex 189.315 5.55585 4
    endloop
  endfacet
  facet normal 0.896767 -0.442502 0
    outer loop
      vertex 189.315 5.55585 0
      vertex 188.794 4.5 4
      vertex 188.794 4.5 0
    endloop
  endfacet
  facet normal -0.831481 0.555553 0
    outer loop
      vertex 1.20577 65.5 0
      vertex 1.85982 66.4789 4
      vertex 1.85982 66.4789 0
    endloop
  endfacet
  facet normal -0.831481 0.555553 0
    outer loop
      vertex 1.85982 66.4789 4
      vertex 1.20577 65.5 0
      vertex 1.20577 65.5 4
    endloop
  endfacet
  facet normal -0.751836 0.65935 0
    outer loop
      vertex 1.85982 66.4789 0
      vertex 2.63604 67.364 4
      vertex 2.63604 67.364 0
    endloop
  endfacet
  facet normal -0.751836 0.65935 0
    outer loop
      vertex 2.63604 67.364 4
      vertex 1.85982 66.4789 0
      vertex 1.85982 66.4789 4
    endloop
  endfacet
  facet normal -0.980787 0.19508 0
    outer loop
      vertex 0.0769958 62.1747 0
      vertex 0.306667 63.3294 4
      vertex 0.306667 63.3294 0
    endloop
  endfacet
  facet normal -0.980787 0.19508 0
    outer loop
      vertex 0.306667 63.3294 4
      vertex 0.0769958 62.1747 0
      vertex 0.0769958 62.1747 4
    endloop
  endfacet
  facet normal 0 0 -1
    outer loop
      vertex 181 0 0
      vertex 190 9 0
      vertex 189.923 7.82526 0
    endloop
  endfacet
  facet normal 0 0 -1
    outer loop
      vertex 190 9 0
      vertex 167.5 35 0
      vertex 190 61 0
    endloop
  endfacet
  facet normal 0 0 -1
    outer loop
      vertex 181 0 0
      vertex 189.923 7.82526 0
      vertex 189.693 6.67063 0
    endloop
  endfacet
  facet normal 0 0 -1
    outer loop
      vertex 167.457 35.6526 0
      vertex 190 61 0
      vertex 167.5 35 0
    endloop
  endfacet
  facet normal 0 0 -1
    outer loop
      vertex 181 0 0
      vertex 189.693 6.67063 0
      vertex 189.315 5.55585 0
    endloop
  endfacet
  facet normal 0 0 -1
    outer loop
      vertex 167.33 36.2941 0
      vertex 190 61 0
      vertex 167.457 35.6526 0
    endloop
  endfacet
  facet normal 0 0 -1
    outer loop
      vertex 181 0 0
      vertex 189.315 5.55585 0
      vertex 188.794 4.5 0
    endloop
  endfacet
  facet normal 0 0 -1
    outer loop
      vertex 167.119 36.9134 0
      vertex 190 61 0
      vertex 167.33 36.2941 0
    endloop
  endfacet
  facet normal 0 0 -1
    outer loop
      vertex 181 0 0
      vertex 188.794 4.5 0
      vertex 188.14 3.52115 0
    endloop
  endfacet
  facet normal 0 0 -1
    outer loop
      vertex 166.83 37.5 0
      vertex 190 61 0
      vertex 167.119 36.9134 0
    endloop
  endfacet
  facet normal 0 0 -1
    outer loop
      vertex 181 0 0
      vertex 188.14 3.52115 0
      vertex 187.364 2.63604 0
    endloop
  endfacet
  facet normal 0 0 -1
    outer loop
      vertex 166.467 38.0438 0
      vertex 190 61 0
      vertex 166.83 37.5 0
    endloop
  endfacet
  facet normal 0 0 -1
    outer loop
      vertex 181 0 0
      vertex 187.364 2.63604 0
      vertex 186.479 1.85982 0
    endloop
  endfacet
  facet normal 0 0 -1
    outer loop
      vertex 166.036 38.5355 0
      vertex 190 61 0
      vertex 166.467 38.0438 0
    endloop
  endfacet
  facet normal 0 0 -1
    outer loop
      vertex 181 0 0
      vertex 186.479 1.85982 0
      vertex 185.5 1.20577 0
    endloop
  endfacet
  facet normal 0 0 -1
    outer loop
      vertex 165.544 38.9668 0
      vertex 190 61 0
      vertex 166.036 38.5355 0
    endloop
  endfacet
  facet normal 0 0 -1
    outer loop
      vertex 181 0 0
      vertex 185.5 1.20577 0
      vertex 184.444 0.685083 0
    endloop
  endfacet
  facet normal 0 0 -1
    outer loop
      vertex 165 39.3301 0
      vertex 190 61 0
      vertex 165.544 38.9668 0
    endloop
  endfacet
  facet normal 0 0 -1
    outer loop
      vertex 181 0 0
      vertex 184.444 0.685083 0
      vertex 183.329 0.306667 0
    endloop
  endfacet
  facet normal 0 -0 -1
    outer loop
      vertex 181 70 0
      vertex 190 61 0
      vertex 165 39.3301 0
    endloop
  endfacet
  facet normal 0 0 -1
    outer loop
      vertex 181 0 0
      vertex 183.329 0.306667 0
      vertex 182.175 0.0769958 0
    endloop
  endfacet
  facet normal 0 0 -1
    outer loop
      vertex 189.923 62.1747 0
      vertex 181 70 0
      vertex 189.693 63.3294 0
    endloop
  endfacet
  facet normal -0 0 -1
    outer loop
      vertex 190 9 0
      vertex 181 0 0
      vertex 165 30.6699 0
    endloop
  endfacet
  facet normal 0 0 -1
    outer loop
      vertex 189.693 63.3294 0
      vertex 181 70 0
      vertex 189.315 64.4442 0
    endloop
  endfacet
  facet normal 0 0 -1
    outer loop
      vertex 189.315 64.4442 0
      vertex 181 70 0
      vertex 188.794 65.5 0
    endloop
  endfacet
  facet normal 0 0 -1
    outer loop
      vertex 190 9 0
      vertex 167.457 34.3474 0
      vertex 167.5 35 0
    endloop
  endfacet
  facet normal 0 0 -1
    outer loop
      vertex 190 9 0
      vertex 167.33 33.7059 0
      vertex 167.457 34.3474 0
    endloop
  endfacet
  facet normal 0 0 -1
    outer loop
      vertex 190 9 0
      vertex 167.119 33.0866 0
      vertex 167.33 33.7059 0
    endloop
  endfacet
  facet normal 0 0 -1
    outer loop
      vertex 190 9 0
      vertex 166.83 32.5 0
      vertex 167.119 33.0866 0
    endloop
  endfacet
  facet normal 0 0 -1
    outer loop
      vertex 190 9 0
      vertex 166.467 31.9562 0
      vertex 166.83 32.5 0
    endloop
  endfacet
  facet normal 0 0 -1
    outer loop
      vertex 190 9 0
      vertex 166.036 31.4645 0
      vertex 166.467 31.9562 0
    endloop
  endfacet
  facet normal 0 0 -1
    outer loop
      vertex 190 9 0
      vertex 165.544 31.0332 0
      vertex 166.036 31.4645 0
    endloop
  endfacet
  facet normal 0 0 -1
    outer loop
      vertex 190 9 0
      vertex 165 30.6699 0
      vertex 165.544 31.0332 0
    endloop
  endfacet
  facet normal 0 0 -1
    outer loop
      vertex 181 0 0
      vertex 164.413 30.3806 0
      vertex 165 30.6699 0
    endloop
  endfacet
  facet normal 0 0 -1
    outer loop
      vertex 181 0 0
      vertex 163.794 30.1704 0
      vertex 164.413 30.3806 0
    endloop
  endfacet
  facet normal 0 0 -1
    outer loop
      vertex 181 0 0
      vertex 163.153 30.0428 0
      vertex 163.794 30.1704 0
    endloop
  endfacet
  facet normal 0 0 -1
    outer loop
      vertex 181 0 0
      vertex 162.5 30 0
      vertex 163.153 30.0428 0
    endloop
  endfacet
  facet normal 0 0 -1
    outer loop
      vertex 181 0 0
      vertex 27.5 30 0
      vertex 162.5 30 0
    endloop
  endfacet
  facet normal 0 0 -1
    outer loop
      vertex 9 0 0
      vertex 27.5 30 0
      vertex 181 0 0
    endloop
  endfacet
  facet normal -0 0 -1
    outer loop
      vertex 22.6704 33.7059 0
      vertex 0 9 0
      vertex 22.5428 34.3474 0
    endloop
  endfacet
  facet normal -0 0 -1
    outer loop
      vertex 22.8806 33.0866 0
      vertex 0 9 0
      vertex 22.6704 33.7059 0
    endloop
  endfacet
  facet normal -0 0 -1
    outer loop
      vertex 23.1699 32.5 0
      vertex 0 9 0
      vertex 22.8806 33.0866 0
    endloop
  endfacet
  facet normal -0 0 -1
    outer loop
      vertex 23.5332 31.9562 0
      vertex 0 9 0
      vertex 23.1699 32.5 0
    endloop
  endfacet
  facet normal -0 0 -1
    outer loop
      vertex 23.9645 31.4645 0
      vertex 0 9 0
      vertex 23.5332 31.9562 0
    endloop
  endfacet
  facet normal -0 0 -1
    outer loop
      vertex 24.4562 31.0332 0
      vertex 0 9 0
      vertex 23.9645 31.4645 0
    endloop
  endfacet
  facet normal -0 0 -1
    outer loop
      vertex 25 30.6699 0
      vertex 0 9 0
      vertex 24.4562 31.0332 0
    endloop
  endfacet
  facet normal 0 0 -1
    outer loop
      vertex 0 9 0
      vertex 25 30.6699 0
      vertex 9 0 0
    endloop
  endfacet
  facet normal -0 0 -1
    outer loop
      vertex 25.5866 30.3806 0
      vertex 9 0 0
      vertex 25 30.6699 0
    endloop
  endfacet
  facet normal -0 0 -1
    outer loop
      vertex 26.2059 30.1704 0
      vertex 9 0 0
      vertex 25.5866 30.3806 0
    endloop
  endfacet
  facet normal -0 0 -1
    outer loop
      vertex 26.8474 30.0428 0
      vertex 9 0 0
      vertex 26.2059 30.1704 0
    endloop
  endfacet
  facet normal -0 0 -1
    outer loop
      vertex 27.5 30 0
      vertex 9 0 0
      vertex 26.8474 30.0428 0
    endloop
  endfacet
  facet normal 0 0 -1
    outer loop
      vertex 188.794 65.5 0
      vertex 181 70 0
      vertex 188.14 66.4789 0
    endloop
  endfacet
  facet normal 0 0 -1
    outer loop
      vertex 187.364 67.364 0
      vertex 181 70 0
      vertex 186.479 68.1402 0
    endloop
  endfacet
  facet normal 0 0 -1
    outer loop
      vertex 186.479 68.1402 0
      vertex 181 70 0
      vertex 185.5 68.7942 0
    endloop
  endfacet
  facet normal 0 0 -1
    outer loop
      vertex 185.5 68.7942 0
      vertex 181 70 0
      vertex 184.444 69.3149 0
    endloop
  endfacet
  facet normal 0 0 -1
    outer loop
      vertex 184.444 69.3149 0
      vertex 181 70 0
      vertex 183.329 69.6933 0
    endloop
  endfacet
  facet normal 0 0 -1
    outer loop
      vertex 183.329 69.6933 0
      vertex 181 70 0
      vertex 182.175 69.923 0
    endloop
  endfacet
  facet normal 0 0 -1
    outer loop
      vertex 188.14 66.4789 0
      vertex 181 70 0
      vertex 187.364 67.364 0
    endloop
  endfacet
  facet normal 0 0 -1
    outer loop
      vertex 190 61 0
      vertex 181 70 0
      vertex 189.923 62.1747 0
    endloop
  endfacet
  facet normal 0 0 -1
    outer loop
      vertex 164.413 39.6194 0
      vertex 181 70 0
      vertex 165 39.3301 0
    endloop
  endfacet
  facet normal 0 0 -1
    outer loop
      vertex 163.794 39.8296 0
      vertex 181 70 0
      vertex 164.413 39.6194 0
    endloop
  endfacet
  facet normal 0 0 -1
    outer loop
      vertex 163.153 39.9572 0
      vertex 181 70 0
      vertex 163.794 39.8296 0
    endloop
  endfacet
  facet normal 0 0 -1
    outer loop
      vertex 162.5 40 0
      vertex 181 70 0
      vertex 163.153 39.9572 0
    endloop
  endfacet
  facet normal 0 0 -1
    outer loop
      vertex 27.5 40 0
      vertex 181 70 0
      vertex 162.5 40 0
    endloop
  endfacet
  facet normal 0 0 -1
    outer loop
      vertex 9 70 0
      vertex 27.5 40 0
      vertex 26.8474 39.9572 0
    endloop
  endfacet
  facet normal -0 0 -1
    outer loop
      vertex 22.5428 34.3474 0
      vertex 0 9 0
      vertex 22.5 35 0
    endloop
  endfacet
  facet normal 0 0 -1
    outer loop
      vertex 0 61 0
      vertex 22.5 35 0
      vertex 0 9 0
    endloop
  endfacet
  facet normal 0 0 -1
    outer loop
      vertex 22.5 35 0
      vertex 0 61 0
      vertex 22.5428 35.6526 0
    endloop
  endfacet
  facet normal 0 0 -1
    outer loop
      vertex 27.5 40 0
      vertex 9 70 0
      vertex 181 70 0
    endloop
  endfacet
  facet normal 0 0 -1
    outer loop
      vertex 26.2059 39.8296 0
      vertex 9 70 0
      vertex 26.8474 39.9572 0
    endloop
  endfacet
  facet normal 0 0 -1
    outer loop
      vertex 25.5866 39.6194 0
      vertex 9 70 0
      vertex 26.2059 39.8296 0
    endloop
  endfacet
  facet normal 0 0 -1
    outer loop
      vertex 25 39.3301 0
      vertex 9 70 0
      vertex 25.5866 39.6194 0
    endloop
  endfacet
  facet normal 0 0 -1
    outer loop
      vertex 0 61 0
      vertex 25 39.3301 0
      vertex 24.4562 38.9668 0
    endloop
  endfacet
  facet normal 0 0 -1
    outer loop
      vertex 0 61 0
      vertex 24.4562 38.9668 0
      vertex 23.9645 38.5355 0
    endloop
  endfacet
  facet normal 0 0 -1
    outer loop
      vertex 0 61 0
      vertex 23.9645 38.5355 0
      vertex 23.5332 38.0438 0
    endloop
  endfacet
  facet normal 0 0 -1
    outer loop
      vertex 0 61 0
      vertex 23.5332 38.0438 0
      vertex 23.1699 37.5 0
    endloop
  endfacet
  facet normal 0 0 -1
    outer loop
      vertex 0 61 0
      vertex 23.1699 37.5 0
      vertex 22.8806 36.9134 0
    endloop
  endfacet
  facet normal 0 0 -1
    outer loop
      vertex 22.5428 35.6526 0
      vertex 0 61 0
      vertex 22.6704 36.2941 0
    endloop
  endfacet
  facet normal 0 0 -1
    outer loop
      vertex 0 9 0
      vertex 9 0 0
      vertex 7.82526 0.0769958 0
    endloop
  endfacet
  facet normal 0 0 -1
    outer loop
      vertex 22.6704 36.2941 0
      vertex 0 61 0
      vertex 22.8806 36.9134 0
    endloop
  endfacet
  facet normal 0 0 -1
    outer loop
      vertex 0 9 0
      vertex 7.82526 0.0769958 0
      vertex 6.67063 0.306667 0
    endloop
  endfacet
  facet normal 0 0 -1
    outer loop
      vertex 25 39.3301 0
      vertex 0 61 0
      vertex 9 70 0
    endloop
  endfacet
  facet normal 0 0 -1
    outer loop
      vertex 0 9 0
      vertex 6.67063 0.306667 0
      vertex 5.55585 0.685083 0
    endloop
  endfacet
  facet normal 0 0 -1
    outer loop
      vertex 9 70 0
      vertex 0 61 0
      vertex 7.82526 69.923 0
    endloop
  endfacet
  facet normal 0 0 -1
    outer loop
      vertex 0 9 0
      vertex 5.55585 0.685083 0
      vertex 4.5 1.20577 0
    endloop
  endfacet
  facet normal 0 0 -1
    outer loop
      vertex 7.82526 69.923 0
      vertex 0 61 0
      vertex 6.67063 69.6933 0
    endloop
  endfacet
  facet normal 0 0 -1
    outer loop
      vertex 0 9 0
      vertex 4.5 1.20577 0
      vertex 3.52115 1.85982 0
    endloop
  endfacet
  facet normal 0 0 -1
    outer loop
      vertex 6.67063 69.6933 0
      vertex 0 61 0
      vertex 5.55585 69.3149 0
    endloop
  endfacet
  facet normal 0 0 -1
    outer loop
      vertex 0 9 0
      vertex 3.52115 1.85982 0
      vertex 2.63604 2.63604 0
    endloop
  endfacet
  facet normal 0 0 -1
    outer loop
      vertex 5.55585 69.3149 0
      vertex 0 61 0
      vertex 4.5 68.7942 0
    endloop
  endfacet
  facet normal 0 0 -1
    outer loop
      vertex 0 9 0
      vertex 2.63604 2.63604 0
      vertex 1.85982 3.52115 0
    endloop
  endfacet
  facet normal 0 0 -1
    outer loop
      vertex 4.5 68.7942 0
      vertex 0 61 0
      vertex 3.52115 68.1402 0
    endloop
  endfacet
  facet normal 0 0 -1
    outer loop
      vertex 0 9 0
      vertex 1.85982 3.52115 0
      vertex 1.20577 4.5 0
    endloop
  endfacet
  facet normal 0 0 -1
    outer loop
      vertex 3.52115 68.1402 0
      vertex 0 61 0
      vertex 2.63604 67.364 0
    endloop
  endfacet
  facet normal 0 0 -1
    outer loop
      vertex 0 9 0
      vertex 1.20577 4.5 0
      vertex 0.685083 5.55585 0
    endloop
  endfacet
  facet normal 0 0 -1
    outer loop
      vertex 2.63604 67.364 0
      vertex 0 61 0
      vertex 1.85982 66.4789 0
    endloop
  endfacet
  facet normal 0 0 -1
    outer loop
      vertex 0 9 0
      vertex 0.685083 5.55585 0
      vertex 0.306667 6.67063 0
    endloop
  endfacet
  facet normal 0 0 -1
    outer loop
      vertex 1.85982 66.4789 0
      vertex 0 61 0
      vertex 1.20577 65.5 0
    endloop
  endfacet
  facet normal 0 0 -1
    outer loop
      vertex 0 9 0
      vertex 0.306667 6.67063 0
      vertex 0.0769958 7.82526 0
    endloop
  endfacet
  facet normal 0 0 -1
    outer loop
      vertex 1.20577 65.5 0
      vertex 0 61 0
      vertex 0.685083 64.4442 0
    endloop
  endfacet
  facet normal 0 0 -1
    outer loop
      vertex 0.685083 64.4442 0
      vertex 0 61 0
      vertex 0.306667 63.3294 0
    endloop
  endfacet
  facet normal 0 0 -1
    outer loop
      vertex 0.306667 63.3294 0
      vertex 0 61 0
      vertex 0.0769958 62.1747 0
    endloop
  endfacet
  facet normal -0.442297 0.896869 0
    outer loop
      vertex 5.55585 69.3149 0
      vertex 4.5 68.7942 4
      vertex 5.55585 69.3149 4
    endloop
  endfacet
  facet normal -0.442297 0.896869 0
    outer loop
      vertex 4.5 68.7942 4
      vertex 5.55585 69.3149 0
      vertex 4.5 68.7942 0
    endloop
  endfacet
  facet normal 0.555484 0.831527 -0
    outer loop
      vertex 186.479 68.1402 0
      vertex 185.5 68.7942 4
      vertex 186.479 68.1402 4
    endloop
  endfacet
  facet normal 0.555484 0.831527 0
    outer loop
      vertex 185.5 68.7942 4
      vertex 186.479 68.1402 0
      vertex 185.5 68.7942 0
    endloop
  endfacet
  facet normal -0.94693 -0.321439 0
    outer loop
      vertex 0.685083 5.55585 0
      vertex 0.306667 6.67063 4
      vertex 0.306667 6.67063 0
    endloop
  endfacet
  facet normal -0.94693 -0.321439 0
    outer loop
      vertex 0.306667 6.67063 4
      vertex 0.685083 5.55585 0
      vertex 0.685083 5.55585 4
    endloop
  endfacet
  facet normal 0.659382 0.751808 -0
    outer loop
      vertex 187.364 67.364 0
      vertex 186.479 68.1402 4
      vertex 187.364 67.364 4
    endloop
  endfacet
  facet normal 0.659382 0.751808 0
    outer loop
      vertex 186.479 68.1402 4
      vertex 187.364 67.364 0
      vertex 186.479 68.1402 0
    endloop
  endfacet
  facet normal 0.195087 0.980786 -0
    outer loop
      vertex 26.8474 30.0428 0
      vertex 26.2059 30.1704 4
      vertex 26.8474 30.0428 4
    endloop
  endfacet
  facet normal 0.195087 0.980786 0
    outer loop
      vertex 26.2059 30.1704 4
      vertex 26.8474 30.0428 0
      vertex 26.2059 30.1704 0
    endloop
  endfacet
  facet normal 0.831509 0.555512 0
    outer loop
      vertex 23.5332 31.9562 4
      vertex 23.1699 32.5 0
      vertex 23.1699 32.5 4
    endloop
  endfacet
  facet normal 0.831509 0.555512 0
    outer loop
      vertex 23.1699 32.5 0
      vertex 23.5332 31.9562 4
      vertex 23.5332 31.9562 0
    endloop
  endfacet
  facet normal -0.659197 -0.75197 0
    outer loop
      vertex 165.544 38.9668 0
      vertex 166.036 38.5355 4
      vertex 165.544 38.9668 4
    endloop
  endfacet
  facet normal -0.659197 -0.75197 -0
    outer loop
      vertex 166.036 38.5355 4
      vertex 165.544 38.9668 0
      vertex 166.036 38.5355 0
    endloop
  endfacet
  facet normal -0.751998 0.659165 0
    outer loop
      vertex 166.036 31.4645 0
      vertex 166.467 31.9562 4
      vertex 166.467 31.9562 0
    endloop
  endfacet
  facet normal -0.751998 0.659165 0
    outer loop
      vertex 166.467 31.9562 4
      vertex 166.036 31.4645 0
      vertex 166.036 31.4645 4
    endloop
  endfacet
  facet normal 0.89686 -0.442314 0
    outer loop
      vertex 22.8806 36.9134 4
      vertex 23.1699 37.5 0
      vertex 23.1699 37.5 4
    endloop
  endfacet
  facet normal 0.89686 -0.442314 0
    outer loop
      vertex 23.1699 37.5 0
      vertex 22.8806 36.9134 4
      vertex 22.8806 36.9134 0
    endloop
  endfacet
  facet normal 0.659424 0.751771 -0
    outer loop
      vertex 24.4562 31.0332 0
      vertex 23.9645 31.4645 4
      vertex 24.4562 31.0332 4
    endloop
  endfacet
  facet normal 0.659424 0.751771 0
    outer loop
      vertex 23.9645 31.4645 4
      vertex 24.4562 31.0332 0
      vertex 23.9645 31.4645 0
    endloop
  endfacet
  facet normal -0.980961 -0.194204 0
    outer loop
      vertex 167.457 35.6526 0
      vertex 167.33 36.2941 4
      vertex 167.33 36.2941 0
    endloop
  endfacet
  facet normal -0.980961 -0.194204 0
    outer loop
      vertex 167.33 36.2941 4
      vertex 167.457 35.6526 0
      vertex 167.457 35.6526 4
    endloop
  endfacet
  facet normal 0.321407 0.946941 -0
    outer loop
      vertex 26.2059 30.1704 0
      vertex 25.5866 30.3806 4
      vertex 26.2059 30.1704 4
    endloop
  endfacet
  facet normal 0.321407 0.946941 0
    outer loop
      vertex 25.5866 30.3806 4
      vertex 26.2059 30.1704 0
      vertex 25.5866 30.3806 0
    endloop
  endfacet
  facet normal 0.946941 -0.321407 0
    outer loop
      vertex 22.6704 36.2941 4
      vertex 22.8806 36.9134 0
      vertex 22.8806 36.9134 4
    endloop
  endfacet
  facet normal 0.946941 -0.321407 0
    outer loop
      vertex 22.8806 36.9134 0
      vertex 22.6704 36.2941 4
      vertex 22.6704 36.2941 0
    endloop
  endfacet
  facet normal 0 1 -0
    outer loop
      vertex 162.5 30 0
      vertex 27.5 30 4
      vertex 162.5 30 4
    endloop
  endfacet
  facet normal 0 1 0
    outer loop
      vertex 27.5 30 4
      vertex 162.5 30 0
      vertex 27.5 30 0
    endloop
  endfacet
  facet normal 0 -1 0
    outer loop
      vertex 27.5 40 0
      vertex 162.5 40 4
      vertex 27.5 40 4
    endloop
  endfacet
  facet normal 0 -1 -0
    outer loop
      vertex 162.5 40 4
      vertex 27.5 40 0
      vertex 162.5 40 0
    endloop
  endfacet
  facet normal 0.555512 0.831509 -0
    outer loop
      vertex 25 30.6699 0
      vertex 24.4562 31.0332 4
      vertex 25 30.6699 4
    endloop
  endfacet
  facet normal 0.555512 0.831509 0
    outer loop
      vertex 24.4562 31.0332 4
      vertex 25 30.6699 0
      vertex 24.4562 31.0332 0
    endloop
  endfacet
  facet normal -0.321546 0.946894 0
    outer loop
      vertex 164.413 30.3806 0
      vertex 163.794 30.1704 4
      vertex 164.413 30.3806 4
    endloop
  endfacet
  facet normal -0.321546 0.946894 0
    outer loop
      vertex 163.794 30.1704 4
      vertex 164.413 30.3806 0
      vertex 163.794 30.1704 0
    endloop
  endfacet
  facet normal -0.0654033 -0.997859 0
    outer loop
      vertex 162.5 40 0
      vertex 163.153 39.9572 4
      vertex 162.5 40 4
    endloop
  endfacet
  facet normal -0.0654033 -0.997859 -0
    outer loop
      vertex 163.153 39.9572 4
      vertex 162.5 40 0
      vertex 163.153 39.9572 0
    endloop
  endfacet
  facet normal -0.831721 0.555194 0
    outer loop
      vertex 166.467 31.9562 0
      vertex 166.83 32.5 4
      vertex 166.83 32.5 0
    endloop
  endfacet
  facet normal -0.831721 0.555194 0
    outer loop
      vertex 166.83 32.5 4
      vertex 166.467 31.9562 0
      vertex 166.467 31.9562 4
    endloop
  endfacet
  facet normal 0.946941 0.321407 0
    outer loop
      vertex 22.8806 33.0866 4
      vertex 22.6704 33.7059 0
      vertex 22.6704 33.7059 4
    endloop
  endfacet
  facet normal 0.946941 0.321407 0
    outer loop
      vertex 22.6704 33.7059 0
      vertex 22.8806 33.0866 4
      vertex 22.8806 33.0866 0
    endloop
  endfacet
  facet normal -0.980961 0.194204 0
    outer loop
      vertex 167.33 33.7059 0
      vertex 167.457 34.3474 4
      vertex 167.457 34.3474 0
    endloop
  endfacet
  facet normal -0.980961 0.194204 0
    outer loop
      vertex 167.457 34.3474 4
      vertex 167.33 33.7059 0
      vertex 167.33 33.7059 4
    endloop
  endfacet
  facet normal 0.659424 -0.751771 0
    outer loop
      vertex 23.9645 38.5355 0
      vertex 24.4562 38.9668 4
      vertex 23.9645 38.5355 4
    endloop
  endfacet
  facet normal 0.659424 -0.751771 0
    outer loop
      vertex 24.4562 38.9668 4
      vertex 23.9645 38.5355 0
      vertex 24.4562 38.9668 0
    endloop
  endfacet
  facet normal 0.751771 0.659424 0
    outer loop
      vertex 23.9645 31.4645 4
      vertex 23.5332 31.9562 0
      vertex 23.5332 31.9562 4
    endloop
  endfacet
  facet normal 0.751771 0.659424 0
    outer loop
      vertex 23.5332 31.9562 0
      vertex 23.9645 31.4645 4
      vertex 23.9645 31.4645 0
    endloop
  endfacet
  facet normal 0.0654432 -0.997856 0
    outer loop
      vertex 26.8474 39.9572 0
      vertex 27.5 40 4
      vertex 26.8474 39.9572 4
    endloop
  endfacet
  facet normal 0.0654432 -0.997856 0
    outer loop
      vertex 27.5 40 4
      vertex 26.8474 39.9572 0
      vertex 27.5 40 0
    endloop
  endfacet
  facet normal -0.442072 -0.89698 0
    outer loop
      vertex 164.413 39.6194 0
      vertex 165 39.3301 4
      vertex 164.413 39.6194 4
    endloop
  endfacet
  facet normal -0.442072 -0.89698 -0
    outer loop
      vertex 165 39.3301 4
      vertex 164.413 39.6194 0
      vertex 165 39.3301 0
    endloop
  endfacet
  facet normal -0.55537 0.831603 0
    outer loop
      vertex 165.544 31.0332 0
      vertex 165 30.6699 4
      vertex 165.544 31.0332 4
    endloop
  endfacet
  facet normal -0.55537 0.831603 0
    outer loop
      vertex 165 30.6699 4
      vertex 165.544 31.0332 0
      vertex 165 30.6699 0
    endloop
  endfacet
  facet normal -0.897042 -0.441945 0
    outer loop
      vertex 167.119 36.9134 0
      vertex 166.83 37.5 4
      vertex 166.83 37.5 0
    endloop
  endfacet
  facet normal -0.897042 -0.441945 0
    outer loop
      vertex 166.83 37.5 4
      vertex 167.119 36.9134 0
      vertex 167.119 36.9134 4
    endloop
  endfacet
  facet normal -0.195233 0.980757 0
    outer loop
      vertex 163.794 30.1704 0
      vertex 163.153 30.0428 4
      vertex 163.794 30.1704 4
    endloop
  endfacet
  facet normal -0.195233 0.980757 0
    outer loop
      vertex 163.153 30.0428 4
      vertex 163.794 30.1704 0
      vertex 163.153 30.0428 0
    endloop
  endfacet
  facet normal 0.831509 -0.555512 0
    outer loop
      vertex 23.1699 37.5 4
      vertex 23.5332 38.0438 0
      vertex 23.5332 38.0438 4
    endloop
  endfacet
  facet normal 0.831509 -0.555512 0
    outer loop
      vertex 23.5332 38.0438 0
      vertex 23.1699 37.5 4
      vertex 23.1699 37.5 0
    endloop
  endfacet
  facet normal -0.659197 0.75197 0
    outer loop
      vertex 166.036 31.4645 0
      vertex 165.544 31.0332 4
      vertex 166.036 31.4645 4
    endloop
  endfacet
  facet normal -0.659197 0.75197 0
    outer loop
      vertex 165.544 31.0332 4
      vertex 166.036 31.4645 0
      vertex 165.544 31.0332 0
    endloop
  endfacet
  facet normal -0.55537 -0.831603 0
    outer loop
      vertex 165 39.3301 0
      vertex 165.544 38.9668 4
      vertex 165 39.3301 4
    endloop
  endfacet
  facet normal -0.55537 -0.831603 -0
    outer loop
      vertex 165.544 38.9668 4
      vertex 165 39.3301 0
      vertex 165.544 38.9668 0
    endloop
  endfacet
  facet normal 0.321407 -0.946941 0
    outer loop
      vertex 25.5866 39.6194 0
      vertex 26.2059 39.8296 4
      vertex 25.5866 39.6194 4
    endloop
  endfacet
  facet normal 0.321407 -0.946941 0
    outer loop
      vertex 26.2059 39.8296 4
      vertex 25.5866 39.6194 0
      vertex 26.2059 39.8296 0
    endloop
  endfacet
  facet normal -0.0654033 0.997859 0
    outer loop
      vertex 163.153 30.0428 0
      vertex 162.5 30 4
      vertex 163.153 30.0428 4
    endloop
  endfacet
  facet normal -0.0654033 0.997859 0
    outer loop
      vertex 162.5 30 4
      vertex 163.153 30.0428 0
      vertex 162.5 30 0
    endloop
  endfacet
  facet normal 0.89686 0.442314 0
    outer loop
      vertex 23.1699 32.5 4
      vertex 22.8806 33.0866 0
      vertex 22.8806 33.0866 4
    endloop
  endfacet
  facet normal 0.89686 0.442314 0
    outer loop
      vertex 22.8806 33.0866 0
      vertex 23.1699 32.5 4
      vertex 23.1699 32.5 0
    endloop
  endfacet
  facet normal -0.195233 -0.980757 0
    outer loop
      vertex 163.153 39.9572 0
      vertex 163.794 39.8296 4
      vertex 163.153 39.9572 4
    endloop
  endfacet
  facet normal -0.195233 -0.980757 -0
    outer loop
      vertex 163.794 39.8296 4
      vertex 163.153 39.9572 0
      vertex 163.794 39.8296 0
    endloop
  endfacet
  facet normal -0.442072 0.89698 0
    outer loop
      vertex 165 30.6699 0
      vertex 164.413 30.3806 4
      vertex 165 30.6699 4
    endloop
  endfacet
  facet normal -0.442072 0.89698 0
    outer loop
      vertex 164.413 30.3806 4
      vertex 165 30.6699 0
      vertex 164.413 30.3806 0
    endloop
  endfacet
  facet normal 0.751771 -0.659424 0
    outer loop
      vertex 23.5332 38.0438 4
      vertex 23.9645 38.5355 0
      vertex 23.9645 38.5355 4
    endloop
  endfacet
  facet normal 0.751771 -0.659424 0
    outer loop
      vertex 23.9645 38.5355 0
      vertex 23.5332 38.0438 4
      vertex 23.5332 38.0438 0
    endloop
  endfacet
  facet normal 0.0654432 0.997856 -0
    outer loop
      vertex 27.5 30 0
      vertex 26.8474 30.0428 4
      vertex 27.5 30 4
    endloop
  endfacet
  facet normal 0.0654432 0.997856 0
    outer loop
      vertex 26.8474 30.0428 4
      vertex 27.5 30 0
      vertex 26.8474 30.0428 0
    endloop
  endfacet
  facet normal -0.831721 -0.555194 0
    outer loop
      vertex 166.83 37.5 0
      vertex 166.467 38.0438 4
      vertex 166.467 38.0438 0
    endloop
  endfacet
  facet normal -0.831721 -0.555194 0
    outer loop
      vertex 166.467 38.0438 4
      vertex 166.83 37.5 0
      vertex 166.83 37.5 4
    endloop
  endfacet
  facet normal 0.980786 -0.195087 0
    outer loop
      vertex 22.5428 35.6526 4
      vertex 22.6704 36.2941 0
      vertex 22.6704 36.2941 4
    endloop
  endfacet
  facet normal 0.980786 -0.195087 0
    outer loop
      vertex 22.6704 36.2941 0
      vertex 22.5428 35.6526 4
      vertex 22.5428 35.6526 0
    endloop
  endfacet
  facet normal -0.946569 -0.322503 0
    outer loop
      vertex 167.33 36.2941 0
      vertex 167.119 36.9134 4
      vertex 167.119 36.9134 0
    endloop
  endfacet
  facet normal -0.946569 -0.322503 0
    outer loop
      vertex 167.119 36.9134 4
      vertex 167.33 36.2941 0
      vertex 167.33 36.2941 4
    endloop
  endfacet
  facet normal 0.442314 -0.89686 0
    outer loop
      vertex 25 39.3301 0
      vertex 25.5866 39.6194 4
      vertex 25 39.3301 4
    endloop
  endfacet
  facet normal 0.442314 -0.89686 0
    outer loop
      vertex 25.5866 39.6194 4
      vertex 25 39.3301 0
      vertex 25.5866 39.6194 0
    endloop
  endfacet
  facet normal -0.321546 -0.946894 0
    outer loop
      vertex 163.794 39.8296 0
      vertex 164.413 39.6194 4
      vertex 163.794 39.8296 4
    endloop
  endfacet
  facet normal -0.321546 -0.946894 -0
    outer loop
      vertex 164.413 39.6194 4
      vertex 163.794 39.8296 0
      vertex 164.413 39.6194 0
    endloop
  endfacet
  facet normal -0.946569 0.322503 0
    outer loop
      vertex 167.119 33.0866 0
      vertex 167.33 33.7059 4
      vertex 167.33 33.7059 0
    endloop
  endfacet
  facet normal -0.946569 0.322503 0
    outer loop
      vertex 167.33 33.7059 4
      vertex 167.119 33.0866 0
      vertex 167.119 33.0866 4
    endloop
  endfacet
  facet normal 0.442314 0.89686 -0
    outer loop
      vertex 25.5866 30.3806 0
      vertex 25 30.6699 4
      vertex 25.5866 30.3806 4
    endloop
  endfacet
  facet normal 0.442314 0.89686 0
    outer loop
      vertex 25 30.6699 4
      vertex 25.5866 30.3806 0
      vertex 25 30.6699 0
    endloop
  endfacet
  facet normal 0.555512 -0.831509 0
    outer loop
      vertex 24.4562 38.9668 0
      vertex 25 39.3301 4
      vertex 24.4562 38.9668 4
    endloop
  endfacet
  facet normal 0.555512 -0.831509 0
    outer loop
      vertex 25 39.3301 4
      vertex 24.4562 38.9668 0
      vertex 25 39.3301 0
    endloop
  endfacet
  facet normal -0.997836 0.0657477 0
    outer loop
      vertex 167.457 34.3474 0
      vertex 167.5 35 4
      vertex 167.5 35 0
    endloop
  endfacet
  facet normal -0.997836 0.0657477 0
    outer loop
      vertex 167.5 35 4
      vertex 167.457 34.3474 0
      vertex 167.457 34.3474 4
    endloop
  endfacet
  facet normal 0.195087 -0.980786 0
    outer loop
      vertex 26.2059 39.8296 0
      vertex 26.8474 39.9572 4
      vertex 26.2059 39.8296 4
    endloop
  endfacet
  facet normal 0.195087 -0.980786 0
    outer loop
      vertex 26.8474 39.9572 4
      vertex 26.2059 39.8296 0
      vertex 26.8474 39.9572 0
    endloop
  endfacet
  facet normal 0.997856 -0.0654432 0
    outer loop
      vertex 22.5 35 4
      vertex 22.5428 35.6526 0
      vertex 22.5428 35.6526 4
    endloop
  endfacet
  facet normal 0.997856 -0.0654432 0
    outer loop
      vertex 22.5428 35.6526 0
      vertex 22.5 35 4
      vertex 22.5 35 0
    endloop
  endfacet
  facet normal 0.980786 0.195087 0
    outer loop
      vertex 22.6704 33.7059 4
      vertex 22.5428 34.3474 0
      vertex 22.5428 34.3474 4
    endloop
  endfacet
  facet normal 0.980786 0.195087 0
    outer loop
      vertex 22.5428 34.3474 0
      vertex 22.6704 33.7059 4
      vertex 22.6704 33.7059 0
    endloop
  endfacet
  facet normal 0.997856 0.0654432 0
    outer loop
      vertex 22.5428 34.3474 4
      vertex 22.5 35 0
      vertex 22.5 35 4
    endloop
  endfacet
  facet normal 0.997856 0.0654432 0
    outer loop
      vertex 22.5 35 0
      vertex 22.5428 34.3474 4
      vertex 22.5428 34.3474 0
    endloop
  endfacet
  facet normal -0.751998 -0.659165 0
    outer loop
      vertex 166.467 38.0438 0
      vertex 166.036 38.5355 4
      vertex 166.036 38.5355 0
    endloop
  endfacet
  facet normal -0.751998 -0.659165 0
    outer loop
      vertex 166.036 38.5355 4
      vertex 166.467 38.0438 0
      vertex 166.467 38.0438 4
    endloop
  endfacet
  facet normal -0.997836 -0.0657477 0
    outer loop
      vertex 167.5 35 0
      vertex 167.457 35.6526 4
      vertex 167.457 35.6526 0
    endloop
  endfacet
  facet normal -0.997836 -0.0657477 0
    outer loop
      vertex 167.457 35.6526 4
      vertex 167.5 35 0
      vertex 167.5 35 4
    endloop
  endfacet
  facet normal -0.897042 0.441945 0
    outer loop
      vertex 166.83 32.5 0
      vertex 167.119 33.0866 4
      vertex 167.119 33.0866 0
    endloop
  endfacet
  facet normal -0.897042 0.441945 0
    outer loop
      vertex 167.119 33.0866 4
      vertex 166.83 32.5 0
      vertex 166.83 32.5 4
    endloop
  endfacet
endsolid OpenSCAD_Model
